<svg width="128px" height="128px" viewBox="0 0 5.76 5.76" xmlns="http://www.w3.org/2000/svg" xmlns:xlink="http://www.w3.org/1999/xlink" aria-hidden="true" role="img" class="iconify iconify--twemoji" preserveAspectRatio="xMidYMid meet"><path fill="#66757F" d="M0.64 0.8s0 -0.16 0.16 -0.16h0.96s0.16 0 0.16 0.16v0.32H0.64z"/><path fill="#31373D" d="M0 1.6s0 -0.64 0.64 -0.64h4.48s0.64 0 0.64 0.64v2.88s0 0.64 -0.64 0.64H0.64s-0.64 0 -0.64 -0.64z"/><path fill="#CCD6DD" cx="21" cy="19" r="10" d="M4.96 3.04A1.6 1.6 0 0 1 3.36 4.64A1.6 1.6 0 0 1 1.76 3.04A1.6 1.6 0 0 1 4.96 3.04z"/><path fill="#31373D" cx="21" cy="19" r="8" d="M4.64 3.04A1.28 1.28 0 0 1 3.36 4.32A1.28 1.28 0 0 1 2.08 3.04A1.28 1.28 0 0 1 4.64 3.04z"/><path fill="#3B88C3" cx="21" cy="19" r="5" d="M4.16 3.04A0.8 0.8 0 0 1 3.36 3.84A0.8 0.8 0 0 1 2.56 3.04A0.8 0.8 0 0 1 4.16 3.04z"/><path fill="#FFF" cx="32.5" cy="9.5" r="1.5" d="M5.44 1.52A0.24 0.24 0 0 1 5.2 1.76A0.24 0.24 0 0 1 4.96 1.52A0.24 0.24 0 0 1 5.44 1.52z"/><path fill="#F5F8FA" d="M1.92 1.52a0.24 0.24 0 0 1 -0.24 0.24h-0.8a0.24 0.24 0 1 1 0 -0.48h0.8A0.24 0.24 0 0 1 1.92 1.52"/></svg>